<svg width="305" height="170" viewBox="0 0 305 170" fill="none" xmlns="http://www.w3.org/2000/svg">
<path fill-rule="evenodd" clip-rule="evenodd" d="M6.42204 78.7769C25.5454 61.7941 75.8657 27.9143 124.159 28.2568C172.453 28.5993 226.769 65.7901 247.891 84.3427C256.453 75.6372 275.291 57.0276 282.142 52.2325C288.992 47.4374 299.267 43.0989 303.548 41.5291C304.262 44.3833 305.261 51.3762 303.548 56.5138C301.408 62.9359 297.983 71.4986 293.701 76.2081C290.276 79.9757 284.568 85.7698 282.142 88.1959C285.852 90.7647 294.129 97.7861 297.555 105.321C301.836 114.74 303.548 118.594 303.548 124.587V135.719C299.267 134.292 288.992 130.068 282.142 124.587C275.291 119.107 257.881 100.612 250.031 92.0491C226.912 112.742 169.371 153.101 124.159 148.991C67.6455 143.854 34.2509 120.306 29.5414 116.453C25.7738 113.37 8.2773 98.8993 0 92.0491L18.4098 84.3427L6.42204 78.7769ZM60.3672 81.3457C66.0421 81.3457 70.6425 76.7453 70.6425 71.0704C70.6425 65.3955 66.0421 60.7951 60.3672 60.7951C54.6923 60.7951 50.0919 65.3955 50.0919 71.0704C50.0919 76.7453 54.6923 81.3457 60.3672 81.3457Z" fill="#FC9799"/>
<path d="M105.749 12.4159C103.463 16.4797 100.644 22.0501 98.9319 26.0547C98.3045 27.5224 99.6703 28.976 101.232 28.645C105.18 27.808 111.575 26.7846 119.022 26.5444C132.294 26.1163 140.428 26.1163 166.116 34.2509C186.667 40.7585 213.782 56.3712 224.771 63.3641V48.8075L232.478 40.2448C229.623 39.9594 221.346 39.5598 211.071 40.2448C200.796 40.9298 194.802 43.9553 193.089 45.3824C192.804 43.5272 192.062 38.9604 191.377 35.5353C190.691 32.1102 187.951 26.6871 186.667 24.4037L179.389 29.5414C174.965 25.4027 162.691 15.4129 148.991 8.56272C135.291 1.71254 119.307 0 113.028 0C111.886 1.85526 108.832 6.9358 105.749 12.4159Z" fill="#FC9799"/>
<path d="M118.316 168.071L113.87 151.401C113.679 150.685 114.306 150.007 115.038 150.126C117.27 150.487 121.267 151.04 126.728 151.56C131.679 152.031 136.846 151.583 140.331 151.026C141.332 150.865 142.048 152.13 141.318 152.833C139.198 154.875 136.145 157.672 133.15 160.123C128.447 163.971 122.776 167.34 119.595 168.717C119.06 168.948 118.466 168.633 118.316 168.071Z" fill="#FC9799"/>
</svg>
