<svg width="300" height="300" viewBox="0 0 300 300" fill="none" xmlns="http://www.w3.org/2000/svg">
<g clip-path="url(#clip0_549_323)">
<g clip-path="url(#clip1_549_323)">
<path fill-rule="evenodd" clip-rule="evenodd" d="M21.2278 44.1881C47.9511 41.8953 111.539 44.94 152.106 75.4604C192.673 105.981 215.379 171.222 221.662 200.028C234.313 198.076 261.808 194.238 270.579 194.5C279.35 194.76 290.728 197.549 295.32 198.91C294.146 201.754 290.635 208.253 285.989 211.496C280.183 215.551 271.959 220.599 265.41 221.874C260.172 222.894 251.744 224.188 248.185 224.707C249.718 229.187 252.335 240.266 250.536 248.74C248.286 259.331 247.331 263.64 243.6 268.674L236.668 278.024C233.941 274.145 227.895 264.165 225.524 255.273C223.151 246.381 219.967 219.948 218.67 207.841C186.263 210.749 112.543 208.626 76.9241 176.87C32.4021 137.176 18.8666 96.4916 17.2891 90.307C16.0275 85.3589 10.2641 62.2511 7.54027 51.3156L27.8846 56.3677L21.2278 44.1881ZM65.1803 80.1167C69.9723 83.6693 76.7217 82.6852 80.2555 77.9187C83.7892 73.1521 82.7693 66.4081 77.9773 62.8555C73.1853 59.3028 66.436 60.2869 62.9022 65.0535C59.3684 69.8201 60.3884 76.5641 65.1803 80.1167Z" fill="#FC9799"/>
<path d="M146.424 50.63C141.963 52.6122 136.114 55.5263 132.175 57.8181C130.731 58.6581 130.979 60.734 132.504 61.4337C136.359 63.2022 142.396 66.346 148.834 70.8063C160.308 78.7553 167.177 83.8474 183.802 106.761C197.104 125.093 210.278 155.181 215.203 167.934L224.267 155.707L236.107 153.34C233.874 151.313 227.134 145.796 218.031 139.939C208.928 134.082 201.982 132.87 199.647 132.997C200.562 131.26 202.779 126.96 204.333 123.654C205.887 120.348 206.95 114.077 207.288 111.356L197.943 111.115C196.785 104.869 192.641 88.7943 185.338 74.4641C178.035 60.1338 165.604 48.689 160.302 44.7582C158.183 45.6016 152.44 47.9571 146.424 50.63Z" fill="#FC9799"/>
<path d="M60.1084 189.238L66.7346 172.453C67.0192 171.732 67.9709 171.555 68.5149 172.113C70.1748 173.814 73.2056 176.78 77.4931 180.636C81.3805 184.131 86.0226 186.989 89.3122 188.703C90.2578 189.195 90.0746 190.705 89.0205 190.839C85.9587 191.227 81.639 191.665 77.5838 191.849C71.2163 192.136 64.3297 191.416 60.7862 190.581C60.1906 190.44 59.8851 189.804 60.1084 189.238Z" fill="#FC9799"/>
</g>
<mask id="mask0_549_323" style="mask-type:alpha" maskUnits="userSpaceOnUse" x="0" y="0" width="300" height="300">
<rect width="300" height="300" fill="#D9D9D9"/>
</mask>
<g mask="url(#mask0_549_323)">
</g>
</g>
<defs>
<clipPath id="clip0_549_323">
<rect width="300" height="300" fill="white"/>
</clipPath>
<clipPath id="clip1_549_323">
<rect width="320.605" height="177.75" fill="white" transform="translate(64.8594 -26) rotate(36.5521)"/>
</clipPath>
</defs>
</svg>
