<svg width="300" height="300" viewBox="0 0 300 300" fill="none" xmlns="http://www.w3.org/2000/svg">
<circle cx="150" cy="150" r="130" stroke="#FC9799" stroke-width="20"/>
<path d="M109.882 209.933C107.904 209.933 106.786 208.944 106.528 206.966C105.84 201.634 104.98 197.463 103.948 194.453C103.518 192.647 104.163 191.744 105.883 191.744H111.688C113.236 191.744 114.44 191.529 115.3 191.099C116.16 190.583 116.59 189.465 116.59 187.745V173.942C116.59 172.652 116.203 171.62 115.429 170.846C114.655 170.072 113.623 169.685 112.333 169.685H98.917C95.735 169.685 95.219 170.932 97.369 173.426C100.809 176.866 103.045 179.317 104.077 180.779C105.109 182.155 105.539 183.23 105.367 184.004C105.195 184.778 104.808 185.38 104.206 185.81C103.69 186.24 103.26 186.627 102.916 186.971C102.572 187.229 102.185 187.53 101.755 187.874L95.821 192.905C95.391 193.335 95.004 193.722 94.66 194.066C94.316 194.324 93.886 194.711 93.37 195.227C92.94 195.657 92.381 195.872 91.693 195.872C91.091 195.872 90.532 195.528 90.016 194.84C89.586 194.066 89.156 193.378 88.726 192.776C88.296 192.174 87.737 191.4 87.049 190.454C86.361 189.508 85.501 188.476 84.469 187.358C83.523 186.24 82.663 185.251 81.889 184.391C81.201 183.531 80.642 182.886 80.212 182.456L78.793 181.037C76.815 179.059 76.858 177.253 78.922 175.619L84.082 171.104C85.2 170.158 84.985 169.685 83.437 169.685C81.975 169.685 81.244 168.911 81.244 167.363V157.301C81.244 156.011 81.631 154.979 82.405 154.205C83.179 153.431 84.211 153.044 85.501 153.044H112.72C113.924 153.044 114.87 152.7 115.558 152.012C116.246 151.238 116.59 150.249 116.59 149.045C116.59 147.841 116.246 146.895 115.558 146.207C114.87 145.519 113.924 145.175 112.72 145.175H80.47C79.18 145.175 78.148 144.788 77.374 144.014C76.6 143.24 76.213 142.208 76.213 140.918V134.21C76.213 133.006 75.869 132.06 75.181 131.372C74.493 130.684 73.547 130.34 72.343 130.34C71.139 130.34 70.193 130.684 69.505 131.372C68.817 132.06 68.473 133.006 68.473 134.21V146.336C68.473 148.486 69.462 149.217 71.44 148.529L76.6 146.723C78.062 146.121 78.793 146.637 78.793 148.271V161.042C78.793 162.676 78.019 163.837 76.471 164.525L71.053 166.847C69.333 167.535 68.473 168.825 68.473 170.717V205.16C68.473 206.45 68.086 207.482 67.312 208.256C66.538 209.03 65.506 209.417 64.216 209.417H54.541C53.251 209.417 52.219 209.03 51.445 208.256C50.671 207.482 50.284 206.45 50.284 205.16V180.134C50.284 178.672 49.854 177.64 48.994 177.038C48.134 176.436 47.102 176.35 45.898 176.78C44.78 177.124 43.834 177.468 43.06 177.812C42.286 178.07 41.512 178.328 40.738 178.586C40.05 178.758 39.405 178.973 38.803 179.231C38.287 179.403 37.728 179.575 37.126 179.747C34.718 180.435 33.256 179.532 32.74 177.038L30.289 165.686C30.031 164.482 30.16 163.407 30.676 162.461C31.278 161.515 32.052 160.913 32.998 160.655C34.03 160.397 34.976 160.182 35.836 160.01C36.696 159.752 37.728 159.408 38.932 158.978C41.77 158.118 44.092 157.43 45.898 156.914C47.79 156.398 48.994 155.796 49.51 155.108C50.026 154.334 50.284 153.474 50.284 152.528V132.791C50.284 131.157 49.424 130.34 47.704 130.34C46.07 130.34 45.124 131.157 44.866 132.791L43.834 138.596C43.662 139.198 43.533 139.757 43.447 140.273C43.361 140.789 43.232 141.434 43.06 142.208C42.888 142.896 42.415 143.455 41.641 143.885C40.867 144.315 40.05 144.444 39.19 144.272C38.416 144.1 37.642 143.971 36.868 143.885C36.094 143.713 35.277 143.584 34.417 143.498C33.643 143.326 32.869 143.197 32.095 143.111C31.407 143.025 30.547 142.939 29.515 142.853C28.569 142.681 27.795 142.208 27.193 141.434C26.591 140.66 26.462 139.628 26.806 138.338C29.558 127.674 31.192 117.311 31.708 107.249C31.88 104.153 33.471 102.777 36.481 103.121L46.027 104.024C47.489 104.196 48.134 104.97 47.962 106.346L47.446 112.409C47.274 113.355 47.747 113.828 48.865 113.828C49.811 113.828 50.284 113.312 50.284 112.28V95.897C50.284 94.607 50.671 93.575 51.445 92.801C52.219 92.027 53.251 91.64 54.541 91.64H64.216C65.506 91.64 66.538 92.027 67.312 92.801C68.086 93.575 68.473 94.607 68.473 95.897V109.571C68.473 110.861 68.86 111.893 69.634 112.667C70.408 113.441 71.44 113.828 72.73 113.828H74.536C75.826 113.828 76.858 114.215 77.632 114.989C78.406 115.763 78.793 116.795 78.793 118.085V124.664C78.793 125.954 79.18 126.986 79.954 127.76C80.728 128.534 81.76 128.921 83.05 128.921H97.498C98.788 128.921 99.82 128.534 100.594 127.76C101.368 126.986 101.755 125.954 101.755 124.664V124.406C101.755 123.116 101.368 122.084 100.594 121.31C99.82 120.536 98.788 120.149 97.498 120.149H86.404C85.114 120.149 84.082 119.762 83.308 118.988C82.534 118.214 82.147 117.182 82.147 115.892V108.926C82.147 107.636 82.534 106.604 83.308 105.83C84.082 105.056 85.114 104.669 86.404 104.669H97.498C98.788 104.669 99.82 104.282 100.594 103.508C101.368 102.734 101.755 101.702 101.755 100.412V95.897C101.755 94.607 102.142 93.575 102.916 92.801C103.69 92.027 104.722 91.64 106.012 91.64H116.59C117.88 91.64 118.912 92.027 119.686 92.801C120.46 93.575 120.847 94.607 120.847 95.897V100.412C120.847 101.702 121.234 102.734 122.008 103.508C122.782 104.282 123.814 104.669 125.104 104.669H137.875C139.165 104.669 140.197 105.056 140.971 105.83C141.745 106.604 142.132 107.636 142.132 108.926V115.892C142.132 117.182 141.745 118.214 140.971 118.988C140.197 119.762 139.165 120.149 137.875 120.149H125.104C123.814 120.149 122.782 120.536 122.008 121.31C121.234 122.084 120.847 123.116 120.847 124.406V124.664C120.847 125.954 121.234 126.986 122.008 127.76C122.782 128.534 123.814 128.921 125.104 128.921H144.841C146.131 128.921 147.163 129.308 147.937 130.082C148.711 130.856 149.098 131.888 149.098 133.178V140.918C149.098 142.208 148.711 143.24 147.937 144.014C147.163 144.788 146.131 145.175 144.841 145.175H138.907C137.703 145.175 136.714 145.519 135.94 146.207C135.252 146.895 134.908 147.841 134.908 149.045C134.908 151.711 136.241 153.044 138.907 153.044H144.067C145.357 153.044 146.389 153.431 147.163 154.205C147.937 154.979 148.324 156.011 148.324 157.301V165.428C148.324 166.718 147.937 167.75 147.163 168.524C146.389 169.298 145.357 169.685 144.067 169.685H139.165C137.875 169.685 136.843 170.072 136.069 170.846C135.295 171.62 134.908 172.652 134.908 173.942V195.485C134.908 203.311 131.296 207.912 124.072 209.288C121.922 209.718 119.557 209.933 116.977 209.933H109.882ZM162.514 205.16V149.948C162.514 147.97 161.955 147.755 160.837 149.303C160.321 149.991 159.762 150.335 159.16 150.335C158.644 150.335 157.999 150.034 157.225 149.432C156.021 147.884 154.473 146.379 152.581 144.917C150.689 143.369 149.7 142.595 149.614 142.595C149.528 142.509 149.442 142.423 149.356 142.337L148.195 141.434C148.023 141.348 147.894 141.305 147.808 141.305C147.808 141.219 147.722 141.133 147.55 141.047C146.174 139.929 145.959 138.682 146.905 137.306C153.183 129.05 158.816 118.558 163.804 105.83C165.266 102.132 166.513 98.52 167.545 94.994C168.405 92.5 170.125 91.511 172.705 92.027L185.734 95.123C186.164 95.295 186.336 95.553 186.25 95.897L185.863 97.316C185.777 97.832 185.949 98.09 186.379 98.09H264.037C265.327 98.09 266.359 98.477 267.133 99.251C267.907 100.025 268.294 101.057 268.294 102.347V111.635C268.294 112.925 267.907 113.957 267.133 114.731C266.359 115.505 265.327 115.892 264.037 115.892H247.009C245.719 115.892 244.687 116.279 243.913 117.053C243.139 117.827 242.752 118.859 242.752 120.149V126.857C242.752 128.147 243.139 129.179 243.913 129.953C244.687 130.727 245.719 131.114 247.009 131.114H260.683C261.973 131.114 263.005 131.501 263.779 132.275C264.553 133.049 264.94 134.081 264.94 135.371V201.548C264.94 202.838 264.553 203.87 263.779 204.644C263.005 205.418 261.973 205.805 260.683 205.805H190.249C188.959 205.805 187.927 205.418 187.153 204.644C186.379 203.87 185.992 202.838 185.992 201.548V135.371C185.992 134.081 186.379 133.049 187.153 132.275C187.927 131.501 188.959 131.114 190.249 131.114H203.923C205.213 131.114 206.245 130.727 207.019 129.953C207.793 129.179 208.18 128.147 208.18 126.857V120.149C208.18 118.859 207.793 117.827 207.019 117.053C206.245 116.279 205.213 115.892 203.923 115.892H189.088C187.798 115.892 186.766 115.505 185.992 114.731C185.218 113.957 184.831 112.925 184.831 111.635V104.153C184.831 102.003 184.487 101.96 183.799 104.024C183.455 105.056 183.111 106.088 182.767 107.12L180.316 113.054C180.144 113.742 180.058 114.258 180.058 114.602V205.16C180.058 206.45 179.671 207.482 178.897 208.256C178.123 209.03 177.091 209.417 175.801 209.417H166.771C165.481 209.417 164.449 209.03 163.675 208.256C162.901 207.482 162.514 206.45 162.514 205.16ZM225.466 131.114C227.272 131.114 228.175 130.211 228.175 128.405V118.601C228.175 116.795 227.272 115.892 225.466 115.892C223.66 115.892 222.757 116.795 222.757 118.601V128.405C222.757 130.211 223.66 131.114 225.466 131.114ZM245.59 187.358C246.364 187.358 247.009 187.1 247.525 186.584C248.041 186.068 248.299 185.38 248.299 184.52V152.399C248.299 151.625 248.041 150.98 247.525 150.464C247.009 149.948 246.321 149.69 245.461 149.69C244.687 149.69 244.042 149.948 243.526 150.464C243.01 150.98 242.752 151.625 242.752 152.399V184.52C242.752 186.412 243.698 187.358 245.59 187.358ZM205.471 187.358C207.277 187.358 208.18 186.455 208.18 184.649V152.399C208.18 150.593 207.277 149.69 205.471 149.69C203.665 149.69 202.762 150.593 202.762 152.399V184.649C202.762 186.455 203.665 187.358 205.471 187.358ZM225.466 187.358C227.272 187.358 228.175 186.455 228.175 184.649V152.399C228.175 150.593 227.272 149.69 225.466 149.69C223.66 149.69 222.757 150.593 222.757 152.399V184.649C222.757 186.455 223.66 187.358 225.466 187.358Z" fill="#FC9799"/>
</svg>
